name Walk7_EMG.mot
datacolumns 17
datarows 25
range 2.86400000 2.88800000
endheader
                time	            vasmed_r	            vaslat_r	            recfem_r	               gra_r	               sar_r	            tibant_r	           perlong_r	            addmag_r	           semimem_r	          bicfemlh_r	            gasmed_r	            gaslat_r	               sol_r	               tfl_r	              gmed_r	              gmax_r	
          2.86400000	          0.23132926	          0.10084548	          0.16073619	          0.58663533	          0.50239063	          0.12224254	          0.17842597	          0.61042686	          0.11301484	          0.08112944	          0.07238922	          0.14392950	          0.02376468	          0.21713479	          0.09999962	          0.13472117	
          2.86500000	          0.22527859	          0.10087526	          0.16031126	          0.57498317	          0.51598697	          0.12604309	          0.17250977	          0.59845618	          0.11203512	          0.08052921	          0.07121022	          0.14258057	          0.02380937	          0.21711501	          0.09999981	          0.13435390	
          2.86600000	          0.21921520	          0.10085895	          0.15987007	          0.56293109	          0.53002825	          0.13002849	          0.16678388	          0.58629100	          0.11096142	          0.07989580	          0.07014442	          0.14114895	          0.02389343	          0.21740919	          0.10001976	          0.13398671	
          2.86700000	          0.21314333	          0.10079254	          0.15941893	          0.55051385	          0.54446331	          0.13419258	          0.16125479	          0.57398845	          0.10979821	          0.07923244	          0.06919011	          0.13964009	          0.02401428	          0.21803548	          0.10005827	          0.13361852	
          2.86800000	          0.20706765	          0.10067251	          0.15896549	          0.53776531	          0.55924254	          0.13852880	          0.15592802	          0.56160490	          0.10855004	          0.07854309	          0.06834615	          0.13805959	          0.02416920	          0.21900716	          0.10011375	          0.13325006	
          2.86900000	          0.20099349	          0.10049571	          0.15852164	          0.52471847	          0.57432427	          0.14303035	          0.15080772	          0.54919261	          0.10722180	          0.07783251	          0.06761153	          0.13641267	          0.02435532	          0.22033438	          0.10018387	          0.13288363	
          2.87000000	          0.19492677	          0.10025969	          0.15810436	          0.51140564	          0.58967746	          0.14769194	          0.14589657	          0.53679964	          0.10581911	          0.07710596	          0.06698474	          0.13470394	          0.02456959	          0.22202599	          0.10026536	          0.13252183	
          2.87100000	          0.18887387	          0.09996309	          0.15773366	          0.49785919	          0.60527746	          0.15251153	          0.14119603	          0.52447197	          0.10434898	          0.07636906	          0.06646354	          0.13293758	          0.02480892	          0.22408937	          0.10035408	          0.13216722	
          2.87200000	          0.18284159	          0.09960581	          0.15742952	          0.48411290	          0.62110009	          0.15749080	          0.13670706	          0.51225610	          0.10282014	          0.07562752	          0.06604502	          0.13111767	          0.02507033	          0.22652874	          0.10044533	          0.13182233	
          2.87300000	          0.17683721	          0.09918875	          0.15721093	          0.47020254	          0.63711766	          0.16263543	          0.13243037	          0.50020214	          0.10124264	          0.07488658	          0.06572598	          0.12924821	          0.02535125	          0.22934348	          0.10053423	          0.13148917	
          2.87400000	          0.17086839	          0.09871324	          0.15709837	          0.45616473	          0.65329636	          0.16795457	          0.12836593	          0.48836617	          0.09962667	          0.07415080	          0.06550304	          0.12733293	          0.02564985	          0.23252695	          0.10061604	          0.13116894	
          2.87500000	          0.16494298	          0.09818098	          0.15711712	          0.44203588	          0.66959416	          0.17345857	          0.12451267	          0.47680946	          0.09798159	          0.07342454	          0.06537232	          0.12537560	          0.02596505	          0.23606571	          0.10068624	          0.13086210	
          2.87600000	          0.15906878	          0.09759454	          0.15729774	          0.42785246	          0.68595965	          0.17915581	          0.12086907	          0.46559501	          0.09631586	          0.07271241	          0.06532922	          0.12338024	          0.02629635	          0.23993981	          0.10074066	          0.13056835	
          2.87700000	          0.15325346	          0.09695779	          0.15767243	          0.41365146	          0.70233301	          0.18505043	          0.11743373	          0.45478318	          0.09463732	          0.07201899	          0.06536845	          0.12135106	          0.02664323	          0.24412422	          0.10077593	          0.13028688	
          2.87800000	          0.14750464	          0.09627541	          0.15826975	          0.39946947	          0.71864854	          0.19114284	          0.11420522	          0.44442810	          0.09295342	          0.07134811	          0.06548448	          0.11929226	          0.02700478	          0.24859033	          0.10078971	          0.13001663	
          2.87900000	          0.14182995	          0.09555206	          0.15911144	          0.38534152	          0.73483699	          0.19743256	          0.11118141	          0.43457651	          0.09127134	          0.07070256	          0.06567205	          0.11720781	          0.02737958	          0.25330818	          0.10078025	          0.12975679	
          2.88000000	          0.13623685	          0.09479209	          0.16021169	          0.37130088	          0.75082789	          0.20391954	          0.10835919	          0.42526902	          0.08959815	          0.07008409	          0.06592603	          0.11510141	          0.02776586	          0.25824966	          0.10074586	          0.12950740	
          2.88100000	          0.13073258	          0.09400000	          0.16157781	          0.35737953	          0.76655262	          0.21060219	          0.10573456	          0.41654096	          0.08794076	          0.06949360	          0.06624089	          0.11297658	          0.02816164	          0.26339064	          0.10068473	          0.12927011	
          2.88200000	          0.12532422	          0.09318077	          0.16321207	          0.34360826	          0.78194681	          0.21747444	          0.10330288	          0.40842154	          0.08630524	          0.06893146	          0.06661042	          0.11083667	          0.02856487	          0.26871119	          0.10059500	          0.12904791	
          2.88300000	          0.12001874	          0.09233990	          0.16511357	          0.33001616	          0.79695289	          0.22452384	          0.10105913	          0.40093246	          0.08469641	          0.06839787	          0.06702772	          0.10868497	          0.02897338	          0.27419643	          0.10047499	          0.12884411	
          2.88400000	          0.11482293	          0.09148319	          0.16728018	          0.31662992	          0.81152516	          0.23173158	          0.09899799	          0.39408692	          0.08311793	          0.06789300	          0.06748562	          0.10652473	          0.02938497	          0.27983788	          0.10032372	          0.12866157	
          2.88500000	          0.10974344	          0.09061670	          0.16971003	          0.30347360	          0.82563492	          0.23907326	          0.09711339	          0.38788891	          0.08157260	          0.06741716	          0.06797721	          0.10435944	          0.02979733	          0.28563283	          0.10014139	          0.12850304	
          2.88600000	          0.10478693	          0.08974696	          0.17240065	          0.29056875	          0.83927037	          0.24652010	          0.09539828	          0.38233317	          0.08006264	          0.06697088	          0.06849599	          0.10219305	          0.03020814	          0.29158070	          0.09992911	          0.12837178	
          2.88700000	          0.09996011	          0.08888088	          0.17534623	          0.27793495	          0.85243154	          0.25404189	          0.09384478	          0.37740644	          0.07859006	          0.06655485	          0.06903555	          0.10003017	          0.03061515	          0.29767874	          0.09968843	          0.12827171	
          2.88800000	          0.09526953	          0.08802517	          0.17853556	          0.26559014	          0.86512430	          0.26161210	          0.09244458	          0.37308954	          0.07715693	          0.06616950	          0.06958957	          0.09787582	          0.03101627	          0.30391965	          0.09942103	          0.12820658	
